<svg width="60" height="49" viewBox="0 0 60 49" fill="none" xmlns="http://www.w3.org/2000/svg">
<path d="M59.8825 5.80852C57.6363 6.79749 55.2567 7.4503 52.8203 7.74594C55.3855 6.20413 57.3061 3.78622 58.2276 0.938724C55.8502 2.32617 53.2153 3.33612 50.4104 3.8986C48.5599 1.91976 46.1077 0.607291 43.4348 0.16501C40.7619 -0.277272 38.0177 0.175382 35.6284 1.45268C33.2391 2.72998 31.3383 4.76044 30.2214 7.22877C29.1044 9.6971 28.8337 12.4652 29.4513 15.1031C19.2267 14.6207 10.1646 9.71086 4.09983 2.28867C2.99686 4.16312 2.42156 6.30106 2.4349 8.47591C2.4349 12.7507 4.60981 16.5081 7.90467 18.7155C5.9519 18.6533 4.04226 18.1253 2.3349 17.1755V17.328C2.3338 20.1689 3.31553 22.9227 5.11355 25.1221C6.91157 27.3216 9.41514 28.8313 12.1995 29.395C10.3953 29.8785 8.50568 29.9511 6.66972 29.6075C7.46032 32.0522 8.99419 34.1893 11.0574 35.7206C13.1206 37.2518 15.6103 38.101 18.1792 38.1497C13.8281 41.5642 8.45581 43.4175 2.92488 43.412C1.94992 43.412 0.977459 43.3545 0 43.2445C5.63904 46.8551 12.1958 48.7717 18.8917 48.7667C41.5258 48.7667 53.8878 30.0275 53.8878 13.8032C53.8878 13.2807 53.8878 12.7532 53.8503 12.2283C56.2651 10.4904 58.3481 8.33293 60 5.85852L59.8825 5.80852Z" fill="#FFE3E3"/>
</svg>
