<svg width="60" height="61" viewBox="0 0 60 61" fill="none" xmlns="http://www.w3.org/2000/svg">
<path d="M43.7452 36.1266C42.9991 35.7523 39.3292 33.9488 38.646 33.6976C37.9602 33.4489 37.4629 33.3258 36.963 34.0744C36.4681 34.8204 35.0363 36.5009 34.6018 36.9983C34.1672 37.4981 33.7301 37.5584 32.9841 37.1866C32.2381 36.8099 29.8316 36.0236 26.9806 33.4816C24.7626 31.5022 23.2629 29.0581 22.8284 28.3095C22.3938 27.5635 22.7832 27.159 23.1549 26.7873C23.4915 26.4532 23.9035 25.9156 24.2752 25.4811C24.6495 25.044 24.7726 24.7325 25.0238 24.2327C25.2725 23.7353 25.1494 23.3007 24.961 22.9264C24.7726 22.5522 23.2805 18.8772 22.6601 17.3826C22.0522 15.9282 21.4368 16.1267 20.9796 16.1015C20.5026 16.0825 20.0252 16.0742 19.5478 16.0764C19.0504 16.0764 18.2416 16.2623 17.5584 17.0109C16.8751 17.7569 14.946 19.563 14.946 23.2379C14.946 26.9104 17.6212 30.4597 17.9929 30.9596C18.3672 31.4569 23.2579 38.9977 30.746 42.2306C32.5269 42.9992 33.916 43.4589 35.0012 43.8005C36.7897 44.3708 38.4174 44.2904 39.701 44.097C41.1353 43.8834 44.117 42.2909 44.7399 40.5476C45.3629 38.8043 45.3629 37.3097 45.1745 36.9983C44.9886 36.6868 44.4912 36.5009 43.7427 36.1266M30.1255 54.7224H30.1155C25.6688 54.7228 21.3038 53.5272 17.478 51.261L16.5712 50.7234L7.17406 53.1901L9.68096 44.0266L9.09066 43.0872C6.60496 39.129 5.28997 34.5483 5.29765 29.8744C5.30016 16.1844 16.4406 5.04656 30.1356 5.04656C36.7671 5.04656 43.0017 7.63385 47.6889 12.3261C50.0016 14.6286 51.8347 17.3669 53.082 20.3825C54.3294 23.3981 54.9663 26.6311 54.9559 29.8945C54.9484 43.5845 43.8105 54.7224 30.1255 54.7224ZM51.2584 8.7617C48.4907 5.97578 45.1977 3.76683 41.5701 2.26285C37.9425 0.758865 34.0525 -0.0102392 30.1255 0.000102933C13.6599 0.000102933 0.258728 13.4012 0.251193 29.8719C0.251193 35.1369 1.62522 40.2763 4.24013 44.8053L0 60.2863L15.8377 56.1316C20.2175 58.5177 25.1254 59.7682 30.113 59.7689H30.1255C46.5887 59.7689 59.9923 46.3677 59.9999 29.8945C60.012 25.9691 59.2457 22.0802 57.7452 18.4528C56.2448 14.8254 54.04 11.5315 51.2584 8.7617Z" fill="#FFE3E3"/>
</svg>
